<?xml version="1.0" encoding="utf-8"?>
<!-- Generator: Adobe Illustrator 18.1.1, SVG Export Plug-In . SVG Version: 6.00 Build 0)  -->
<svg version="1.1" id="Laag_1" xmlns="http://www.w3.org/2000/svg" xmlns:xlink="http://www.w3.org/1999/xlink" x="0px" y="0px"
	 viewBox="0 0 44 44" enable-background="new 0 0 44 44" xml:space="preserve">
<g>
	<defs>
		<rect id="SVGID_1_" width="44" height="44"/>
	</defs>
	<clipPath id="SVGID_2_">
		<use xlink:href="#SVGID_1_"  overflow="visible"/>
	</clipPath>
	<path clip-path="url(#SVGID_2_)" fill="none" stroke="#FFFFFF" d="M22,43.5c11.9,0,21.5-9.6,21.5-21.5S33.9,0.5,22,0.5
		S0.5,10.1,0.5,22S10.1,43.5,22,43.5z"/>
	<path clip-path="url(#SVGID_2_)" fill="#FFFFFF" d="M10.2,30.5c2.8,0.2,5.3-0.5,7.7-2.2c-2.5-0.3-4.1-1.5-5-3.8h2.2
		c-2.5-1-3.9-2.7-4.1-5.4c0.8,0.2,1.5,0.4,2.2,0.6c0-0.1,0.1-0.1,0.1-0.2c-1.3-1-2-2.3-2.2-3.9c-0.1-1.1,0.1-2.1,0.7-3.1
		c2.9,3.4,6.6,5.3,11.1,5.6c0-0.8-0.1-1.5,0-2.2c0.4-2,1.6-3.4,3.6-4.1c1.9-0.7,3.7-0.3,5.3,1.1c0.3,0.2,0.5,0.4,0.9,0.2
		c0.8-0.3,1.6-0.6,2.4-0.9c0.1,0,0.2-0.1,0.4-0.2c-0.4,1.2-1.1,2.1-2,2.9c0.4-0.1,0.9-0.2,1.3-0.3c0.4-0.1,0.9-0.3,1.4-0.5
		c-0.6,0.9-1.2,1.6-2,2.2c-0.4,0.3-0.6,0.7-0.6,1.2c-0.2,5.6-2.5,10.1-7.3,13.1c-2.8,1.8-6,2.4-9.4,2.1c-2.3-0.2-4.5-0.9-6.4-2.1
		c-0.1,0-0.1-0.1-0.2-0.1C10.2,30.6,10.2,30.6,10.2,30.5"/>
</g>
</svg>
