<?xml version="1.0" encoding="UTF-8" standalone="no"?><!DOCTYPE svg PUBLIC "-//W3C//DTD SVG 1.1//EN" "http://www.w3.org/Graphics/SVG/1.1/DTD/svg11.dtd"><svg width="100%" height="100%" viewBox="0 0 44 44" version="1.1" xmlns="http://www.w3.org/2000/svg" xmlns:xlink="http://www.w3.org/1999/xlink" xml:space="preserve" xmlns:serif="http://www.serif.com/" style="fill-rule:evenodd;clip-rule:evenodd;"><g><path d="M22,43.5c11.9,0 21.5,-9.6 21.5,-21.5c0,-11.9 -9.6,-21.5 -21.5,-21.5c-11.9,0 -21.5,9.6 -21.5,21.5c0,11.9 9.6,21.5 21.5,21.5Z" style="fill:none;stroke:#fff;stroke-width:1px;"/><path d="M25.949,11.469l-7.898,0c-3.634,0 -6.582,2.948 -6.582,6.582l0,7.898c0,3.634 2.947,6.582 6.582,6.582l7.898,0c3.634,0 6.582,-2.947 6.582,-6.582l0,-7.898c-0.001,-3.634 -2.948,-6.582 -6.582,-6.582Zm4.607,14.48c0,2.541 -2.067,4.607 -4.607,4.607l-7.898,0c-2.54,0 -4.607,-2.067 -4.607,-4.607l0,-7.898c0,-2.541 2.067,-4.607 4.607,-4.607l7.898,0c2.541,0 4.607,2.066 4.607,4.607l0,7.898l0,0Z" style="fill:#fff;fill-rule:nonzero;"/><path d="M22,16.735c-2.908,0 -5.265,2.357 -5.265,5.265c0,2.908 2.357,5.265 5.265,5.265c2.907,0 5.265,-2.357 5.265,-5.265c0,-2.908 -2.357,-5.265 -5.265,-5.265Zm0,8.556c-1.814,0 -3.291,-1.477 -3.291,-3.291c0,-1.815 1.477,-3.291 3.291,-3.291c1.814,0 3.291,1.475 3.291,3.291c0,1.814 -1.477,3.291 -3.291,3.291Z" style="fill:#fff;fill-rule:nonzero;"/><circle cx="27.66" cy="16.34" r="0.702" style="fill:#fff;"/></g></svg>