<?xml version="1.0" encoding="utf-8"?>
<!-- Generator: Adobe Illustrator 18.1.1, SVG Export Plug-In . SVG Version: 6.00 Build 0)  -->
<svg version="1.1" baseProfile="basic" id="Laag_1" xmlns="http://www.w3.org/2000/svg" xmlns:xlink="http://www.w3.org/1999/xlink"
	 x="0px" y="0px" viewBox="471.5 272 17 16" xml:space="preserve">
<g>
	<path fill="#004BFF" d="M479.6,272.7c3.8,0,6.8,2.6,7,5.9h-14.1C472.7,275.3,475.8,272.7,479.6,272.7 M472.2,279.3H487
		c0.2,0,0.3-0.2,0.3-0.3c0-3.8-3.5-7-7.7-7c-4.3,0-7.7,3.1-7.7,7C471.8,279.2,472,279.3,472.2,279.3"/>
	<path fill="#004BFF" d="M487.4,284.5c0,0.2-0.1,0.3-0.3,0.3H487h-14.8h-0.1c-0.2,0-0.3-0.2-0.3-0.3v-0.9c0-0.2,0.1-0.3,0.3-0.3h15
		c0.2,0,0.3,0.2,0.3,0.3V284.5z M486.6,285.8c0,0.8-0.7,1.5-1.5,1.5H474c-0.8,0-1.5-0.7-1.5-1.5v-0.2h14.1V285.8z M487,282.6h-15
		c-0.6,0-1,0.5-1,1v0.9c0,0.5,0.3,0.9,0.8,1v0.2c0,1.2,1,2.2,2.2,2.2h11.1c1.2,0,2.2-1,2.2-2.2v-0.2c0.4-0.1,0.8-0.5,0.8-1v-0.9
		C488.1,283.1,487.6,282.6,487,282.6"/>
	<path fill="#004BFF" d="M472.7,281.7c0.1,0.1,0.3,0.1,0.5,0l1.1-1.1l1.1,1.1c0.1,0.1,0.3,0.1,0.5,0l1.1-1l1.1,1.1
		c0.1,0.1,0.3,0.1,0.5,0l1.1-1.1l1.1,1.1c0.1,0.1,0.3,0.1,0.5,0l1-1l1.1,1.1c0.1,0.1,0.3,0.1,0.5,0l1.1-1.1l1.1,1.1
		c0.1,0.1,0.2,0.1,0.2,0.1c0.1,0,0.2,0,0.2-0.1l1.3-1.3c0.1-0.1,0.1-0.4,0-0.5s-0.4-0.1-0.5,0l-1,1L485,280c-0.1-0.1-0.3-0.1-0.5,0
		l-1.1,1.1l-1.1-1.1c-0.1-0.1-0.3-0.1-0.5,0l-1,1l-1.1-1.1c-0.1-0.1-0.3-0.1-0.5,0l-1.1,1.1l-1.1-1.1c-0.1-0.1-0.2-0.1-0.3-0.1
		c-0.1,0-0.2,0.1-0.2,0.1l-1,1l-1.1-1.1c-0.1-0.1-0.3-0.1-0.5,0l-1.1,1.1l-1.1-1.1c-0.1-0.1-0.4-0.1-0.5,0s-0.1,0.4,0,0.5
		L472.7,281.7z"/>
	<path fill="#004BFF" d="M477.9,274h-0.2c-0.2,0-0.3,0.2-0.3,0.3c0,0.2,0.2,0.3,0.3,0.3h0.2c0.2,0,0.3-0.2,0.3-0.3
		C478.3,274.2,478.1,274,477.9,274"/>
	<path fill="#004BFF" d="M479.8,275.2h-0.2c-0.2,0-0.3,0.2-0.3,0.3c0,0.2,0.2,0.3,0.3,0.3h0.2c0.2,0,0.3-0.2,0.3-0.3
		C480.1,275.4,480,275.2,479.8,275.2"/>
	<path fill="#004BFF" d="M481.7,274h-0.2c-0.2,0-0.3,0.2-0.3,0.3c0,0.2,0.2,0.3,0.3,0.3h0.2c0.2,0,0.3-0.2,0.3-0.3
		S481.9,274,481.7,274"/>
</g>
</svg>
