<?xml version="1.0" encoding="UTF-8" standalone="no"?><!DOCTYPE svg PUBLIC "-//W3C//DTD SVG 1.1//EN" "http://www.w3.org/Graphics/SVG/1.1/DTD/svg11.dtd"><svg width="100%" height="100%" viewBox="0 0 250 250" version="1.1" xmlns="http://www.w3.org/2000/svg" xmlns:xlink="http://www.w3.org/1999/xlink" xml:space="preserve" xmlns:serif="http://www.serif.com/" style="fill-rule:evenodd;clip-rule:evenodd;stroke-linejoin:round;stroke-miterlimit:2;"><g><g><path d="M163.75,74.583c7.5,2.917 16.25,-1.25 18.75,-8.75c2.917,-7.5 -1.25,-16.25 -8.75,-18.75c-7.5,-2.916 -16.25,1.25 -18.75,8.75c-2.5,7.084 1.25,15.834 8.75,18.75Z" style="fill:#fff;fill-rule:nonzero;"/></g><g><path d="M194.167,196.667c-17.917,-0 -32.5,-14.584 -32.5,-32.5c-0,-13.334 7.916,-24.584 19.583,-29.584l8.75,30.834c0.417,1.666 2.083,2.916 4.167,2.916l1.25,0c2.083,-0.833 3.333,-2.916 2.916,-5l-8.75,-30.833c1.667,-0.417 2.917,-0.417 4.584,-0.417c17.916,0 32.5,14.584 32.5,32.5c-0.417,17.5 -14.584,32.084 -32.5,32.084Zm-0,-72.084c-2.5,0 -4.584,0.417 -6.667,0.417l-2.5,-9.167c3.75,-0.833 4.583,-2.083 4.583,-5.416c0,-5.417 -3.75,-5.834 -11.25,-5.417l-12.083,0.417l-9.167,-25c-0.416,-0.834 -0.833,-1.667 -1.25,-2.084l-4.166,-6.25c-0,-0.416 -1.25,-1.666 -1.667,-2.083c0,0 -5.833,-9.583 -19.167,0l-31.666,22.917c-7.084,5.833 -10.834,11.25 -5.417,20.833c0,0 2.917,4.583 10,9.583c3.333,2.5 19.167,11.667 19.167,11.667l-18.75,27.5c-1.25,1.667 -1.25,3.75 -0.834,5.833c0.417,1.25 1.25,2.5 2.5,3.334c2.917,2.083 7.5,1.666 10.417,-1.667c0,0 21.667,-30.417 23.75,-33.333c2.917,-4.167 0.417,-7.917 -1.25,-9.167c-1.667,-1.25 -22.083,-14.583 -22.083,-14.583l28.333,-19.584l7.5,19.584c0.833,2.5 3.333,5 5.833,5.416c0,0 3.75,-0.416 7.917,-0.416l-38.75,43.75c-1.667,1.666 -1.25,4.583 0.417,5.833c1.666,1.667 4.583,1.25 5.833,-0.417l42.5,-48.333l2.5,8.75c-14.583,5.833 -25,20.417 -25,37.083c0,22.084 17.917,40 40,40c22.083,0 40,-17.916 40,-40c0,-22.5 -17.5,-40 -39.583,-40Z" style="fill:#fff;fill-rule:nonzero;"/></g><g><path d="M189.583,97.083c0,-2.083 -1.666,-3.75 -3.75,-3.75l-9.583,0c-2.083,0 -3.75,1.667 -3.75,3.75l0,0.417c0,2.083 1.667,4.167 3.75,4.167l9.583,-0c2.084,-0.417 3.75,-2.084 3.75,-4.584Z" style="fill:#fff;fill-rule:nonzero;"/></g><g><path d="M65,160.417l15,-17.917c4.583,5 7.5,11.25 7.917,17.917l-22.917,-0Zm-9.167,36.25c-17.916,-0 -32.5,-14.584 -32.5,-32.5c0,-17.917 14.584,-32.5 32.5,-32.5c6.667,-0 12.5,2.083 17.5,5.416l-20.833,25c-1.25,1.25 -1.25,2.917 -0.417,4.584c0.834,1.666 2.084,2.5 3.75,2.5l32.084,-0c-2.084,15.416 -15.834,27.5 -32.084,27.5Zm28.75,-60l11.25,-13.334c-2.5,-2.083 -4.166,-3.75 -5,-5.416c-1.25,-1.25 -1.666,-2.5 -1.666,-2.5c-1.667,-2.917 -2.5,-5.834 -2.917,-8.334l-3.333,0c-2.917,0 -5.417,2.5 -5.417,5.417c0,2.917 2.5,5.417 5.417,5.417l6.666,-0l-11.25,13.333c-6.25,-4.583 -14.166,-7.083 -22.5,-7.083c-22.083,-0 -40,17.916 -40,40c0,22.083 17.917,40 40,40c20.417,-0 37.5,-15.834 39.584,-35.417l2.083,0l4.583,-8.75l-6.25,0c-1.25,-8.75 -5,-17.083 -11.25,-23.333Z" style="fill:#fff;fill-rule:nonzero;"/></g></g></svg>