<?xml version="1.0" encoding="UTF-8" standalone="no"?><!DOCTYPE svg PUBLIC "-//W3C//DTD SVG 1.1//EN" "http://www.w3.org/Graphics/SVG/1.1/DTD/svg11.dtd"><svg width="100%" height="100%" viewBox="0 0 200 200" version="1.1" xmlns="http://www.w3.org/2000/svg" xmlns:xlink="http://www.w3.org/1999/xlink" xml:space="preserve" xmlns:serif="http://www.serif.com/" style="fill-rule:evenodd;clip-rule:evenodd;stroke-linecap:round;stroke-miterlimit:10;"><g id="Laag-1" serif:id="Laag 1"><path d="M175.338,118.03c0,-5.535 -4.494,-10.029 -10.03,-10.029c-5.535,-0.001 -10.029,4.494 -10.029,10.029c0,5.535 4.494,10.03 10.029,10.03c5.536,0 10.03,-4.495 10.03,-10.03Z" style="fill:none;stroke:#004bff;stroke-width:4px;"/><path d="M57.247,110.069c0,-9.929 -8.061,-17.99 -17.99,-17.99c-9.93,0 -17.991,8.061 -17.991,17.99c0,9.929 8.061,17.99 17.991,17.99c9.929,0 17.99,-8.061 17.99,-17.99Z" style="fill:none;stroke:#004bff;stroke-width:4px;"/><path d="M81.119,85.667l-29.739,0c-1.457,0 -2.774,0.869 -3.347,2.209l-10.097,23.412" style="fill:none;stroke:#004bff;stroke-width:4px;"/><path d="M54.167,78.667l-9.333,0" style="fill:none;stroke:#004bff;stroke-width:4px;"/><path d="M88.862,84.902l-1.766,-5.565" style="fill:none;stroke:#004bff;stroke-width:4px;"/><path d="M84.894,94.034l64.115,0c2.545,0 4.218,2.657 3.118,4.952l-9.127,19.044l-50.5,0l-14.615,-46.107l-10.833,-0.03" style="fill:none;stroke:#004bff;stroke-width:4px;"/><path d="M165.308,118.03l-20.993,-0.001" style="fill:none;stroke:#004bff;stroke-width:4px;"/></g></svg>