<?xml version="1.0" encoding="utf-8"?>
<!-- Generator: Adobe Illustrator 18.1.1, SVG Export Plug-In . SVG Version: 6.00 Build 0)  -->
<svg version="1.1" id="Laag_1" xmlns="http://www.w3.org/2000/svg" xmlns:xlink="http://www.w3.org/1999/xlink" x="0px" y="0px"
	 viewBox="0 0 52 52" enable-background="new 0 0 52 52" xml:space="preserve">
<g>
	<defs>
		<rect id="SVGID_7_" x="-13.8" y="-13.2" width="80" height="80"/>
	</defs>
	<clipPath id="SVGID_2_">
		<use xlink:href="#SVGID_7_"  overflow="visible"/>
	</clipPath>
	<path clip-path="url(#SVGID_2_)" fill="#004BFF" d="M42.9,40.1h-4.8c-0.3,0-0.6,0.1-0.8,0.4c-2.1,2.7-4.5,4.8-7.8,6.7L28,47.2h-0.3
		c-0.4,0-0.9,0-1.4-0.1l2.3-1c0.5-0.2,0.8-0.7,1-1.2c0.1-0.5,0-1.1-0.3-1.5c-0.1-0.1-0.2-0.2-0.2-0.3c0,0-0.1-0.1-0.1-0.1l-0.1-0.1
		c-0.5-0.7-1-1.3-1.7-1.8l0.6-0.3c0.5-0.2,0.8-0.6,1-1.1c0.1-0.5,0-1-0.3-1.5c-0.1-0.1-0.3-0.4-0.4-0.5c-0.5-0.6-1.1-1.1-1.7-1.5
		c0.4-0.2,0.7-0.6,0.8-1c0.1-0.5,0-1-0.3-1.5c-0.8-1.1-1.7-1.9-2.8-2.4c0.3-0.2,0.5-0.5,0.6-0.9c0.1-0.5,0.1-1-0.2-1.4
		c-1.4-2.1-3.3-3.2-5.7-3.2c-0.6,0-1.3,0.1-2.3,0.4c-0.7,0.2-1.5,0.5-2.4,0.9l-1.2,0.1c-0.6,0-1,0.5-1,1c0,0.6,0.5,1,1,1l1.4-0.1
		c0.1,0,0.2,0,0.3-0.1c1-0.4,1.8-0.7,2.4-0.9c0.7-0.2,1.3-0.3,1.7-0.3c1.6,0,2.8,0.7,3.8,2l-1.5,0.7c0,0,0,0-0.1,0l-3.8,1.7
		c-0.8,0.4-1.7,0.5-2.6,0.5l-1,0c-1.1,0-2.1-0.3-3-0.9c0,0,0,0,0,0c-0.2-0.2-0.5-0.4-0.7-0.6c-1-1-1.5-2.2-1.5-3.6
		c0-1.5,1-2.6,2.9-3.4c2-0.8,5.1-1.2,9.1-1.2h0.7c0.3,0,0.5-0.1,0.7-0.3c0.2-0.2,0.3-0.5,0.3-0.7l0-0.3c0-3.1-1-6.4-3.1-9.7
		c0,0,0,0,0,0l-0.5-0.8c-0.8-1.4-1.3-2.7-1.3-3.9c0-1.1,0.3-2.1,0.9-2.9c0.6-0.7,1.4-1.3,2.5-1.7l0.5,2.5c0.6,2.9,2,5.5,4,7.7l4.7,5
		c1.4,1.8,2.3,3,3,3.8c1.7,2.4,3,3.8,3.8,4.2c0.9,0.4,2.8,0.6,6,0.6c0.8,2.3,1.2,4.7,1.2,7.2C44,35.7,43.6,37.8,42.9,40.1
		 M22.9,46.4C22.9,46.4,22.9,46.4,22.9,46.4l-0.8,0.3c-0.4,0.2-0.9,0.3-1.4,0.3h-0.5c-1.2,0-2.1-0.2-2.7-0.6
		c-0.5-0.4-0.8-0.9-0.8-1.6l0-0.5h1.5c1.1,0,2.3-0.2,3.3-0.7l3.5-1.6l0.2,0.2c0,0,0.1,0.1,0.1,0.1c0.7,0.6,1.3,1.2,1.8,1.9l0.1,0.2
		c0,0,0,0,0,0.1L22.9,46.4z M16,42.2C16,42.2,15.9,42.2,16,42.2c-1.1-0.1-1.9-0.2-2.5-0.5c-0.6-0.3-0.9-0.7-1-1.4l0.2-0.8
		c0.4,0,0.9,0.1,1.4,0.1H17c1.1,0,2.2-0.2,3.3-0.7l3.8-1.7l0.4,0.2c0.8,0.4,1.5,0.9,2.1,1.6l0.1,0.1L25,39.9l-4.1,1.8
		c-0.8,0.4-1.6,0.5-2.5,0.5h-1.5C16.5,42.3,16.3,42.2,16,42.2 M12.2,37.5c-0.6-0.1-1-0.2-1.4-0.4c-0.7-0.4-1-0.9-1-1.5
		c0-0.3,0.2-0.7,0.5-1.2l0.2-0.2c1,0.5,2.1,0.7,3.2,0.7l0.9,0c1.2,0,2.4-0.2,3.4-0.7l3.5-1.6l0.6,0.2c1.1,0.3,2,0.9,2.9,1.9
		l-1.2,0.5c0,0,0,0,0,0l-4.3,1.9c-0.8,0.3-1.6,0.5-2.5,0.5h-2.8C13.5,37.6,12.9,37.6,12.2,37.5C12.3,37.5,12.3,37.5,12.2,37.5
		 M44.6,25.6l-0.2-0.5c-0.1-0.4-0.5-0.7-0.9-0.7H43c-4.3,0-5.3-0.4-5.4-0.4c-0.1,0-0.9-0.5-3.1-3.5c-0.6-0.9-1.6-2.1-3-3.9
		c0,0-0.1-0.1-0.1-0.1l-4.8-5.1c-1.8-1.9-3-4.2-3.5-6.7l-0.8-3.6c-0.1-0.3-0.2-0.5-0.5-0.7c-0.2-0.1-0.5-0.2-0.8-0.1l-0.8,0.3
		c-1.6,0.6-2.9,1.4-3.7,2.5c-0.9,1.1-1.3,2.5-1.3,4.1c0,1.6,0.5,3.3,1.6,5l0.5,0.9c0,0,0,0,0,0c1.7,2.8,2.6,5.5,2.7,8.1
		c-4.1,0-7.3,0.5-9.5,1.3c-3.5,1.4-4.2,3.6-4.2,5.3c0,2,0.7,3.7,2.1,5c0.1,0.1,0.1,0.1,0.2,0.2l-0.2,0.3c-0.5,0.8-0.8,1.5-0.8,2.3
		c0,1.4,0.7,2.6,2.1,3.3c0.3,0.1,0.6,0.3,0.9,0.4l-0.2,0.7c0,0.1,0,0.3,0,0.4c0,1.4,0.7,2.6,2.1,3.2c0.6,0.3,1.3,0.5,2.2,0.6l0,0.6
		c0,1.4,0.6,2.6,1.7,3.3c0.9,0.6,2.2,0.9,3.8,0.9h0.5c0.8,0,1.5-0.2,2.2-0.5l0.4-0.2l2.3,0.6c0.8,0.2,1.5,0.2,2,0.2l2-0.1
		c0.3,0,0.5-0.1,0.8-0.2c3.4-1.9,6-4.1,8.1-6.8h5c0.4,0,0.8-0.3,0.9-0.7l0.2-0.5c0.9-2.5,1.3-4.9,1.3-7.3
		C46,30.9,45.5,28.2,44.6,25.6"/>
</g>
</svg>
