<?xml version="1.0" encoding="utf-8"?>
<!-- Generator: Adobe Illustrator 18.1.0, SVG Export Plug-In . SVG Version: 6.00 Build 0)  -->
<svg version="1.1" id="Layer_1" xmlns="http://www.w3.org/2000/svg" xmlns:xlink="http://www.w3.org/1999/xlink" x="0px" y="0px"
	 viewBox="-449 251 60 60" enable-background="new -449 251 60 60" xml:space="preserve">
<g>
	<path fill="#FFFFFF" d="M-399.4,268.3c0,1.6-1,3-2.6,3.8c-0.1,0-0.2,0-0.3-0.1c0,0,0-0.1,0-0.1c0-0.1,0-0.1,0.1-0.1
		c0.9-0.8,1.4-2.1,1.4-3.5c0-1.4-0.5-2.7-1.4-3.5c0,0-0.1-0.1-0.1-0.1c0,0,0-0.1,0-0.1c0.1-0.1,0.2-0.1,0.3-0.1
		C-400.4,265.3-399.4,266.7-399.4,268.3z M-396,268.3c0,2.1-1.3,4.1-3.4,5c-0.1,0-0.2,0-0.3-0.1c0,0,0-0.1,0-0.1
		c0-0.1,0-0.1,0.1-0.1c1.3-1.1,2.3-2.8,2.3-4.7c0-1.9-0.9-3.7-2.3-4.7c0,0-0.1-0.1-0.1-0.1c0,0,0-0.1,0-0.1c0.1-0.1,0.2-0.1,0.3-0.1
		C-397.3,264.3-396,266.2-396,268.3z M-403.5,262.4v11.8c0,0.2-0.2,0.4-0.4,0.4h-0.4c-0.2,0-0.4-0.2-0.4-0.4v-0.8l-11.3-3.2
		c0,0-1.2,1.4-1.2,0.1v-4c0-1.3,1.2,0.1,1.2,0.1l11.3-3.2v-0.8c0-0.2,0.2-0.4,0.4-0.4h0.4C-403.7,262-403.5,262.2-403.5,262.4z
		 M-429.6,276.5l-2.3,2.4l2.4,3c0.6,0.9,0.4,2-0.5,2.6c-0.3,0.2-0.7,0.3-1.1,0.3c-0.6,0-1.2-0.3-1.5-0.8l-3.1-4.4
		c-0.5-0.8-0.4-1.8,0.2-2.4l4.3-4.2c0.5-0.5,1.2-0.8,2-0.8h0.7l2,4.1l1.1-1.6c-0.2-0.2-0.6-0.6-0.6-1.6c0-0.7,0.5-0.8,1.2-0.8h0
		c0.7,0,1.2,0.1,1.2,0.8c0,1-0.4,1.5-0.6,1.6l1.1,1.6l2-4.1h0.5c0.9,0,1.7,0.4,2.2,1.1l2.3,2.9l1.6-2.1c0.7-0.8,1.8-0.9,2.6-0.2
		c0.8,0.7,0.9,1.9,0.2,2.7l-3.1,3.8c-0.4,0.4-0.9,0.7-1.4,0.7c0,0,0,0,0,0c-0.6,0-1.1-0.3-1.5-0.8l-2.5-3.4l-1.3,20.6
		c0,1.4-1,2.5-2.3,2.5h-2.3c-1.3,0-2.3-1.1-2.3-2.5L-429.6,276.5z M-428.5,267.1c0,2.1,1.7,3.8,3.7,3.8s3.8-1.7,3.8-3.8
		c0-2.1-1.7-3.8-3.8-3.8S-428.5,265-428.5,267.1z"/>
</g>
</svg>
