<?xml version="1.0" encoding="utf-8"?>
<!-- Generator: Adobe Illustrator 18.1.0, SVG Export Plug-In . SVG Version: 6.00 Build 0)  -->
<svg version="1.1" id="Layer_1" xmlns="http://www.w3.org/2000/svg" xmlns:xlink="http://www.w3.org/1999/xlink" x="0px" y="0px"
	 viewBox="-449 251 60 60" enable-background="new -449 251 60 60" xml:space="preserve">
<g>
	<g>
		<path d="M-403.3,293.9c-2.8,3.7-6.4,6.1-11.8,6.1c-7.8,0-13.2-5-15.2-12.4h-2.8c-1.3,0-2.3-1-2.3-2.3
			c0-1.2,1-2.3,2.3-2.3h2c-0.1-0.6-0.1-1.3-0.1-2c0-0.8,0-1.6,0.1-2.4h-2.1c-1.3,0-2.3-1-2.3-2.2c0-1.3,1-2.3,2.3-2.3h2.9
			c2-7.1,7.5-12.2,14.9-12.2c5.6,0,8.9,2.2,11.7,5.4c0.4,0.4,0.8,1.2,0.8,2.2c0,1.7-1.4,3-3.1,3c-1.1,0-1.8-0.5-2.3-1
			c-2-2.4-4-3.7-7.3-3.7c-3.8,0-6.6,2.5-8.1,6.4h9.3c1.2,0,2.2,1,2.2,2.3c0,1.2-1,2.2-2.2,2.2h-10.3c-0.1,0.7-0.1,1.5-0.1,2.3
			c0,0.7,0,1.4,0.1,2.1h10.4c1.2,0,2.2,1,2.2,2.3c0,1.3-1,2.3-2.2,2.3h-9.4c1.5,4.2,4.5,6.7,8.6,6.7c3.2,0,5.2-1.5,7.2-4
			c0.5-0.6,1.3-1,2.3-1c1.6,0,2.9,1.3,2.9,2.8C-402.6,292.8-403,293.5-403.3,293.9z"/>
	</g>
</g>
</svg>
