<?xml version="1.0" encoding="UTF-8" standalone="no"?><!DOCTYPE svg PUBLIC "-//W3C//DTD SVG 1.1//EN" "http://www.w3.org/Graphics/SVG/1.1/DTD/svg11.dtd"><svg width="100%" height="100%" viewBox="0 0 250 250" version="1.1" xmlns="http://www.w3.org/2000/svg" xmlns:xlink="http://www.w3.org/1999/xlink" xml:space="preserve" xmlns:serif="http://www.serif.com/" style="fill-rule:evenodd;clip-rule:evenodd;stroke-linejoin:round;stroke-miterlimit:2;"><g><g><path d="M190.417,178.75c-11.667,15.417 -26.667,25.417 -49.167,25.417c-32.5,-0 -55,-20.834 -63.333,-51.667l-11.667,0c-5.417,0 -9.583,-4.167 -9.583,-9.583c-0,-5 4.166,-9.584 9.583,-9.584l8.333,0c-0.416,-2.5 -0.416,-5.416 -0.416,-8.333c-0,-3.333 -0,-6.667 0.416,-10l-8.75,0c-5.416,0 -9.583,-4.167 -9.583,-9.167c-0,-5.416 4.167,-9.583 9.583,-9.583l12.084,0c8.333,-29.583 31.25,-50.833 62.083,-50.833c23.333,-0 37.083,9.166 48.75,22.5c1.667,1.666 3.333,5 3.333,9.166c0,7.084 -5.833,12.5 -12.916,12.5c-4.584,0 -7.5,-2.083 -9.584,-4.166c-8.333,-10 -16.666,-15.417 -30.416,-15.417c-15.834,0 -27.5,10.417 -33.75,26.667l38.75,-0c5,-0 9.166,4.166 9.166,9.583c0,5 -4.166,9.167 -9.166,9.167l-42.917,-0c-0.417,2.916 -0.417,6.25 -0.417,9.583c0,2.917 0,5.833 0.417,8.75l43.333,0c5,0 9.167,4.167 9.167,9.583c-0,5.417 -4.167,9.584 -9.167,9.584l-39.166,-0c6.25,17.5 18.75,27.916 35.833,27.916c13.333,0 21.667,-6.25 30,-16.666c2.083,-2.5 5.417,-4.167 9.583,-4.167c6.667,0 12.084,5.417 12.084,11.667c0.416,2.5 -1.25,5.416 -2.5,7.083Z" style="fill:#fff;fill-rule:nonzero;"/></g></g></svg>