<?xml version="1.0" encoding="utf-8"?>
<!-- Generator: Adobe Illustrator 18.1.0, SVG Export Plug-In . SVG Version: 6.00 Build 0)  -->
<svg version="1.1" id="Layer_1" xmlns="http://www.w3.org/2000/svg" xmlns:xlink="http://www.w3.org/1999/xlink" x="0px" y="0px"
	 viewBox="-449 251 60 60" enable-background="new -449 251 60 60" xml:space="preserve">
<g>
	<rect x="-426.2" y="276" fill="#FFFFFF" width="5.5" height="5.1"/>
	<rect x="-426.2" y="283.3" fill="#FFFFFF" width="5.5" height="5.1"/>
	<rect x="-426.2" y="290.5" fill="#FFFFFF" width="5.5" height="5.1"/>
	<rect x="-418" y="276" fill="#FFFFFF" width="5.5" height="5.1"/>
	<rect x="-418" y="283.3" fill="#FFFFFF" width="5.5" height="5.1"/>
	<rect x="-418" y="290.5" fill="#FFFFFF" width="5.5" height="5.1"/>
	<rect x="-410.2" y="276" fill="#FFFFFF" width="5.5" height="5.1"/>
	<rect x="-410.2" y="283.3" fill="#FFFFFF" width="5.5" height="5.1"/>
	<rect x="-434.2" y="283.3" fill="#FFFFFF" width="5.5" height="5.1"/>
	<rect x="-434.2" y="290.5" fill="#FFFFFF" width="5.5" height="5.1"/>
	<path fill="#FFFFFF" d="M-404.8,266.5V262h-8v4.5h-13.4V262h-8v4.5h-4.5V300h39.3v-33.5H-404.8z M-410.2,263.8h2.8v5h-2.8V263.8z
		 M-431.4,263.8h2.8v5h-2.8V263.8z M-402,297.8h-34.7v-24.3h34.7V297.8z"/>
</g>
</svg>
