<?xml version="1.0" encoding="utf-8"?>
<!-- Generator: Adobe Illustrator 18.1.1, SVG Export Plug-In . SVG Version: 6.00 Build 0)  -->
<svg version="1.1" id="Laag_1" xmlns="http://www.w3.org/2000/svg" xmlns:xlink="http://www.w3.org/1999/xlink" x="0px" y="0px"
	 viewBox="0 0 49.1 36.1" enable-background="new 0 0 49.1 36.1" xml:space="preserve">
<g>
	<defs>
		<rect id="SVGID_1_" x="0" y="0" width="49.1" height="36.1"/>
	</defs>
	<clipPath id="SVGID_2_">
		<use xlink:href="#SVGID_1_"  overflow="visible"/>
	</clipPath>
	
		<path clip-path="url(#SVGID_2_)" fill="none" stroke="#231F20" stroke-width="2.142" stroke-linecap="round" stroke-miterlimit="10" d="
		M10.2,26l3.6-12.1c0.3-1,1.2-1.6,2.2-1.6h21.4 M15.9,7.5H9.9 M38.9,26.1L33.1,2.8c-0.3-1-1.2-1.7-2.2-1.7h-5.5 M19.4,25.9
		c0,5.1-4.1,9.1-9.2,9.1c-5.1,0-9.2-4.1-9.2-9.1c0-5.1,4.1-9.1,9.2-9.1C15.3,16.7,19.4,20.8,19.4,25.9z M48,25.9
		c0,5.1-4.1,9.1-9.1,9.1c-5.1,0-9.2-4.1-9.2-9.1c0-5.1,4.1-9.1,9.2-9.1C43.9,16.7,48,20.8,48,25.9z M35.6,12.2h11.7"/>
</g>
</svg>
