<?xml version="1.0" encoding="utf-8"?>
<!-- Generator: Adobe Illustrator 18.1.1, SVG Export Plug-In . SVG Version: 6.00 Build 0)  -->
<svg version="1.1" baseProfile="basic" id="Laag_1" xmlns="http://www.w3.org/2000/svg" xmlns:xlink="http://www.w3.org/1999/xlink"
	 x="0px" y="0px" viewBox="0 0 960 560" xml:space="preserve">
<g>
	<defs>
		<rect id="SVGID_1_" x="471" y="272" width="17.1" height="16"/>
	</defs>
	<clipPath id="SVGID_2_">
		<use xlink:href="#SVGID_1_"  overflow="visible"/>
	</clipPath>
	<path clip-path="url(#SVGID_2_)" fill="#004BFF" d="M479.6,272.7c3.8,0,6.9,2.6,7.1,5.9h-14.2C472.7,275.3,475.8,272.7,479.6,272.7
		 M472.1,279.3H487c0.2,0,0.3-0.2,0.3-0.3c0-3.8-3.5-7-7.8-7c-4.3,0-7.8,3.1-7.8,7C471.8,279.2,471.9,279.3,472.1,279.3"/>
	<path clip-path="url(#SVGID_2_)" fill="#004BFF" d="M487.4,284.5c0,0.2-0.2,0.3-0.3,0.3H487h-14.9H472c-0.2,0-0.3-0.2-0.3-0.3v-0.9
		c0-0.2,0.2-0.3,0.3-0.3h15.1c0.2,0,0.3,0.2,0.3,0.3V284.5z M486.7,285.8c0,0.8-0.7,1.5-1.5,1.5H474c-0.8,0-1.5-0.7-1.5-1.5v-0.2
		h14.2V285.8z M487.1,282.6H472c-0.6,0-1,0.5-1,1v0.9c0,0.5,0.3,0.9,0.8,1v0.2c0,1.2,1,2.2,2.2,2.2h11.2c1.2,0,2.2-1,2.2-2.2v-0.2
		c0.4-0.1,0.8-0.5,0.8-1v-0.9C488.1,283.1,487.7,282.6,487.1,282.6"/>
	<path clip-path="url(#SVGID_2_)" fill="#004BFF" d="M472.6,281.7c0.1,0.1,0.3,0.1,0.5,0l1.1-1.1l1.1,1.1c0.1,0.1,0.3,0.1,0.5,0
		l1.1-1l1.1,1.1c0.1,0.1,0.3,0.1,0.5,0l1.1-1.1l1.1,1.1c0.1,0.1,0.3,0.1,0.5,0l1.1-1l1.1,1.1c0.1,0.1,0.3,0.1,0.5,0l1.1-1.1l1.1,1.1
		c0.1,0.1,0.2,0.1,0.2,0.1s0.2,0,0.2-0.1l1.3-1.3c0.1-0.1,0.1-0.4,0-0.5c-0.1-0.1-0.4-0.1-0.5,0l-1.1,1l-1.1-1.1
		c-0.1-0.1-0.3-0.1-0.5,0l-1.1,1.1l-1.1-1.1c-0.1-0.1-0.3-0.1-0.5,0l-1.1,1l-1.1-1.1c-0.1-0.1-0.3-0.1-0.5,0l-1.1,1.1l-1.1-1.1
		c-0.1-0.1-0.2-0.1-0.3-0.1c-0.1,0-0.2,0.1-0.2,0.1l-1.1,1l-1.1-1.1c-0.1-0.1-0.3-0.1-0.5,0l-1.1,1.1l-1.1-1.1
		c-0.1-0.1-0.4-0.1-0.5,0c-0.1,0.1-0.1,0.4,0,0.5L472.6,281.7z"/>
	<path clip-path="url(#SVGID_2_)" fill="#004BFF" d="M477.9,274h-0.2c-0.2,0-0.3,0.2-0.3,0.3c0,0.2,0.2,0.3,0.3,0.3h0.2
		c0.2,0,0.3-0.2,0.3-0.3C478.2,274.2,478.1,274,477.9,274"/>
	<path clip-path="url(#SVGID_2_)" fill="#004BFF" d="M479.8,275.2h-0.2c-0.2,0-0.3,0.2-0.3,0.3c0,0.2,0.2,0.3,0.3,0.3h0.2
		c0.2,0,0.3-0.2,0.3-0.3C480.1,275.4,480,275.2,479.8,275.2"/>
	<path clip-path="url(#SVGID_2_)" fill="#004BFF" d="M481.7,274h-0.2c-0.2,0-0.3,0.2-0.3,0.3c0,0.2,0.2,0.3,0.3,0.3h0.2
		c0.2,0,0.3-0.2,0.3-0.3C482.1,274.2,481.9,274,481.7,274"/>
</g>
</svg>
