<?xml version="1.0" encoding="utf-8"?>
<!-- Generator: Adobe Illustrator 18.1.1, SVG Export Plug-In . SVG Version: 6.00 Build 0)  -->
<svg version="1.1" id="Laag_1" xmlns="http://www.w3.org/2000/svg" xmlns:xlink="http://www.w3.org/1999/xlink" x="0px" y="0px"
	 viewBox="0 0 20 16" enable-background="new 0 0 20 16" xml:space="preserve">
<g>
	<defs>
		<rect id="SVGID_1_" x="0" width="20" height="16"/>
	</defs>
	<clipPath id="SVGID_2_">
		<use xlink:href="#SVGID_1_"  overflow="visible"/>
	</clipPath>
	<path clip-path="url(#SVGID_2_)" d="M15.6,8.2c-1.9,0-3.4,1.5-3.4,3.4s1.5,3.4,3.4,3.4c1.9,0,3.4-1.5,3.4-3.4
		S17.5,8.2,15.6,8.2 M15.6,16c-2.4,0-4.4-2-4.4-4.4c0-2.4,2-4.4,4.4-4.4c2.4,0,4.4,2,4.4,4.4C20,14,18,16,15.6,16"/>
	<path clip-path="url(#SVGID_2_)" d="M4.4,8.2C2.5,8.2,1,9.7,1,11.6S2.5,15,4.4,15c1.9,0,3.4-1.5,3.4-3.4
		S6.3,8.2,4.4,8.2 M4.4,16C2,16,0,14,0,11.6c0-2.4,2-4.4,4.4-4.4c2.4,0,4.4,2,4.4,4.4C8.8,14,6.8,16,4.4,16"/>
	<path clip-path="url(#SVGID_2_)" d="M4.4,11.8c0,0-0.1,0-0.1,0c-0.3-0.1-0.4-0.4-0.3-0.6l1.9-6.1
		c0.1-0.2,0.3-0.4,0.5-0.4h6.3L14.7,1h-3.3C11.2,1,11,0.8,11,0.5C11,0.2,11.2,0,11.5,0h4.1c0.2,0,0.3,0.1,0.4,0.2
		c0.1,0.2,0.1,0.3,0,0.5l-2.7,4.7c-0.1,0.2-0.3,0.3-0.4,0.3H6.6l-1.8,5.7C4.8,11.7,4.6,11.8,4.4,11.8"/>
	<path clip-path="url(#SVGID_2_)" d="M15.6,11.8c-0.2,0-0.4-0.1-0.5-0.3l-2.7-6.1c-0.1-0.3,0-0.5,0.3-0.7
		c0.2-0.1,0.5,0,0.7,0.3l2.7,6.1c0.1,0.3,0,0.5-0.3,0.7C15.7,11.8,15.7,11.8,15.6,11.8"/>
	<path clip-path="url(#SVGID_2_)" d="M7.4,4H3.8C3.6,4,3.3,3.7,3.3,3.5C3.3,3.2,3.6,3,3.8,3h3.5
		c0.3,0,0.5,0.2,0.5,0.5C7.9,3.7,7.7,4,7.4,4"/>
</g>
</svg>
