<?xml version="1.0" encoding="utf-8"?>
<!-- Generator: Adobe Illustrator 18.1.1, SVG Export Plug-In . SVG Version: 6.00 Build 0)  -->
<svg version="1.1" id="Laag_1" xmlns="http://www.w3.org/2000/svg" xmlns:xlink="http://www.w3.org/1999/xlink" x="0px" y="0px"
	 viewBox="0 0 44 44" enable-background="new 0 0 44 44" xml:space="preserve">
<g>
	<defs>
		<rect id="SVGID_1_" width="44" height="44"/>
	</defs>
	<clipPath id="SVGID_2_">
		<use xlink:href="#SVGID_1_"  overflow="visible"/>
	</clipPath>
	<path clip-path="url(#SVGID_2_)" fill="none" stroke="#FFFFFF" d="M22,43.5c11.9,0,21.5-9.6,21.5-21.5S33.9,0.5,22,0.5
		S0.5,10.1,0.5,22S10.1,43.5,22,43.5z"/>
	<path clip-path="url(#SVGID_2_)" fill="#FFFFFF" d="M17.8,34.6V22h-3.3v-4.5h3.3v-3.9c0-3,2-5.8,6.5-5.8c1.8,0,3.2,0.2,3.2,0.2
		l-0.1,4.2c0,0-1.4,0-2.9,0c-1.6,0-1.9,0.8-1.9,2v3.3h4.9L27.3,22h-4.7v12.5H17.8z"/>
</g>
</svg>
