<?xml version="1.0" encoding="utf-8"?>
<!-- Generator: Adobe Illustrator 18.1.1, SVG Export Plug-In . SVG Version: 6.00 Build 0)  -->
<svg version="1.1" id="Laag_1" xmlns="http://www.w3.org/2000/svg" xmlns:xlink="http://www.w3.org/1999/xlink" x="0px" y="0px"
	 viewBox="326 111 340 340" enable-background="new 326 111 340 340" xml:space="preserve">
<g>
	<g>
		<path fill="#FFFFFF" d="M329.8,388.2c35.6,2.5,67.5-6.4,98-28c-31.8-3.8-52.2-19.1-63.6-48.4h28c-31.8-12.7-49.6-34.4-52.2-68.7
			c10.2,2.5,19.1,5.1,28,7.6c0-1.3,1.3-1.3,1.3-2.5c-16.5-12.7-25.5-29.3-28-49.6c-1.3-14,1.3-26.7,8.9-39.5
			c36.9,43.3,84,67.5,141.3,71.3c0-10.2-1.3-19.1,0-28c5.1-25.5,20.4-43.3,45.8-52.2c24.2-8.9,47.1-3.8,67.5,14
			c3.8,2.5,6.4,5.1,11.5,2.5c10.2-3.8,20.4-7.6,30.5-11.5c1.3,0,2.5-1.3,5.1-2.5c-5.1,15.3-14,26.7-25.5,36.9
			c5.1-1.3,11.5-2.5,16.5-3.8c5.1-1.3,11.5-3.8,17.8-6.4c-7.6,11.5-15.3,20.4-25.5,28c-5.1,3.8-7.6,8.9-7.6,15.3
			c-2.5,71.3-31.8,128.5-92.9,166.7c-35.6,22.9-76.4,30.5-119.6,26.7c-29.3-2.5-57.3-11.5-81.5-26.7c-1.3,0-1.3-1.3-2.5-1.3
			C329.8,389.5,329.8,389.5,329.8,388.2"/>
	</g>
</g>
</svg>
