<?xml version="1.0" encoding="utf-8"?>
<!-- Generator: Adobe Illustrator 18.1.1, SVG Export Plug-In . SVG Version: 6.00 Build 0)  -->
<svg version="1.1" baseProfile="basic" id="Laag_1" xmlns="http://www.w3.org/2000/svg" xmlns:xlink="http://www.w3.org/1999/xlink"
	 x="0px" y="0px" viewBox="0 0 17 16" xml:space="preserve">
<g>
	<defs>
		<rect id="SVGID_1_" x="0.7" width="15" height="16"/>
	</defs>
	<clipPath id="SVGID_2_">
		<use xlink:href="#SVGID_1_"  overflow="visible"/>
	</clipPath>
	<path clip-path="url(#SVGID_2_)" fill="#004BFF" d="M5.9,9.7l0.5-0.5v3.2c0,0.2,0.1,0.3,0.3,0.3c0.2,0,0.3-0.1,0.3-0.3V9.2l0.5,0.5
		c0.1,0.1,0.1,0.1,0.2,0.1c0.1,0,0.2,0,0.2-0.1c0.1-0.1,0.1-0.3,0-0.5l-1-1c0,0-0.1-0.1-0.1-0.1c0,0-0.1,0-0.1,0s-0.1,0-0.1,0
		c0,0-0.1,0-0.1,0.1l-1,1c-0.1,0.1-0.1,0.3,0,0.5S5.8,9.8,5.9,9.7"/>
	<path clip-path="url(#SVGID_2_)" fill="#004BFF" d="M9.6,8.1c0,0-0.1,0-0.1,0.1l-1,1c-0.1,0.1-0.1,0.3,0,0.5c0.1,0.1,0.3,0.1,0.5,0
		l0.5-0.5v3.2c0,0.2,0.1,0.3,0.3,0.3c0.2,0,0.3-0.1,0.3-0.3V9.2l0.5,0.5c0.1,0.1,0.1,0.1,0.2,0.1c0.1,0,0.2,0,0.2-0.1
		c0.1-0.1,0.1-0.3,0-0.5l-1-1c0,0-0.1-0.1-0.1-0.1s-0.1,0-0.1,0C9.6,8.1,9.6,8.1,9.6,8.1"/>
	<path clip-path="url(#SVGID_2_)" fill="#004BFF" d="M15,15.3H1.3V3.9h5.6v2.8C6.9,6.8,7,7,7.2,7h2c0.2,0,0.3-0.1,0.3-0.3V4l0-0.1
		H15V15.3z M2.5,0.7h4.7L7,3.2c0,0,0,0,0,0H1.5L2.5,0.7z M8.9,6.3H7.5l0-2.4l0.1-0.7l0.3-2.6h0.7l0.3,2.6l0,0.2l0,0.4L8.9,6.3z
		 M14.9,3.2H9.5L9.2,0.7h4.7L14.9,3.2z M15.7,3.6c0,0,0-0.1,0-0.1l0,0l-1.3-3.2c0-0.1-0.2-0.2-0.3-0.2H8.8H7.6H2.3
		C2.1,0,2,0.1,2,0.2L0.7,3.4l0,0c0,0,0,0.1,0,0.1c0,0,0,0,0,0v12.1C0.7,15.9,0.8,16,1,16h14.4c0.2,0,0.3-0.1,0.3-0.3L15.7,3.6
		C15.7,3.6,15.7,3.6,15.7,3.6"/>
	<path clip-path="url(#SVGID_2_)" fill="#004BFF" d="M10.6,13.3H5.8c-0.2,0-0.3,0.1-0.3,0.3c0,0.2,0.1,0.3,0.3,0.3h4.8
		c0.2,0,0.3-0.1,0.3-0.3C10.9,13.5,10.8,13.3,10.6,13.3"/>
</g>
</svg>
