<?xml version="1.0" encoding="utf-8"?>
<!-- Generator: Adobe Illustrator 18.1.0, SVG Export Plug-In . SVG Version: 6.00 Build 0)  -->
<svg version="1.1" id="Layer_1" xmlns="http://www.w3.org/2000/svg" xmlns:xlink="http://www.w3.org/1999/xlink" x="0px" y="0px"
	 viewBox="-449 251 60 60" enable-background="new -449 251 60 60" xml:space="preserve">
<path fill="#c4c4c4" d="M-408.7,281c-0.8-0.1-1.5,0.4-1.7,1.2c-0.6,4.3-4.3,7.5-8.7,7.5c-4.3,0-8.1-3.2-8.7-7.5
	c-0.1-0.8-0.9-1.4-1.7-1.2c-0.8,0.1-1.4,0.9-1.2,1.7c0.8,5.7,5.8,10,11.6,10s10.7-4.3,11.6-10C-407.3,281.9-407.9,281.1-408.7,281z
	 M-419,262c-10.5,0-19,8.5-19,19s8.5,19,19,19c10.5,0,19-8.5,19-19S-408.5,262-419,262z M-419,296.3c-8.5,0-15.3-6.9-15.3-15.3
	s6.9-15.3,15.3-15.3s15.3,6.9,15.3,15.3S-410.5,296.3-419,296.3z M-423.4,278.8c1.2,0,2.2-1,2.2-2.2c0-1.2-1-2.2-2.2-2.2
	c-1.2,0-2.2,1-2.2,2.2C-425.6,277.8-424.6,278.8-423.4,278.8z M-414.6,278.8c1.2,0,2.2-1,2.2-2.2c0-1.2-1-2.2-2.2-2.2
	s-2.2,1-2.2,2.2C-416.8,277.8-415.8,278.8-414.6,278.8z"/>
</svg>
