<?xml version="1.0" encoding="utf-8"?>
<!-- Generator: Adobe Illustrator 18.1.0, SVG Export Plug-In . SVG Version: 6.00 Build 0)  -->
<svg version="1.1" id="Layer_1" xmlns="http://www.w3.org/2000/svg" xmlns:xlink="http://www.w3.org/1999/xlink" x="0px" y="0px"
	 viewBox="-449 251 60 60" enable-background="new -449 251 60 60" xml:space="preserve">
<g>
	<path fill="#FFFFFF" d="M-390.7,294.6v0.9c0,1.1-0.8,2.7-2.6,2.7h-8h-0.2c0.1-0.6,0.2-1.2,0.2-1.8v-1.6c0-2.5-1.3-4.5-3.9-6.2
		c0.4-0.2,0.8-0.4,1.2-0.6c0.4-0.4,0.4-1,0.4-1.6c-3.6-0.5-4.3-2.2-4.3-2.2c1.9-2.1,0.3-3,0.1-5.9c-0.1-2.3,1.1-5,3.6-5.7
		c0.3-1.1,1.7-1.4,2.9-1.4c1.7,0,3.4,0.8,4.4,1.9c1.7,1.7,2.2,3.9,1.9,6.4c-0.2,1.8-1.6,2.6,0.3,4.8c0,0-0.6,1.7-4.3,2.2
		c0,0.6,0,1.2,0.4,1.6c1.9,1.2,4.7,2.1,5.9,2.8C-391.3,291.6-390.7,292.5-390.7,294.6z M-436.7,294.8c0-1.6,0.5-4,3.9-6.2
		c-1-0.6-1.3-1.2-1.3-2c1.4-1,2.6-2.7,3-4.5c0.7,0,1.3-0.8,1.4-1.9c0.1-1-0.3-1.8-0.9-2c0.1-1.7-0.1-3.6-0.8-4.8
		c-0.5-1-2.6-2.3-5.3-2.3c-2.7,0-4.1,0.7-4.5,2.1c-1.7,0.3-1.9,3-1.7,5.1c-0.6,0.1-1,1-1,2c0.1,1.1,0.7,1.9,1.4,1.9
		c0.4,1.8,1.7,3.5,3.1,4.5c0,0.8-0.3,1.4-1.3,2c-1.2,0.7-2.4,1.2-4,2c-2.4,1.1-2.7,2.2-2.7,4c0,2.3,0.8,3.6,3.5,3.6h7.1h0.3
		c-0.2-0.6-0.3-1.1-0.3-1.8L-436.7,294.8L-436.7,294.8z M-407,289.6c-2.2-1.2-3.9-1.8-6.3-2.8c-1.6-0.8-2.1-1.8-2-2.9
		c2-1.5,3.6-3.9,4.2-6.3c0.8-0.2,1.6-1.3,1.7-2.6c0.1-1.4-0.4-2.5-1.2-2.8c0.2-2.3-0.2-5.1-1-6.8c-0.7-1.4-3.6-3.3-7.2-3.3
		c-3.7,0-5.5,1-6.1,2.9c-2.3,0.4-2.6,4.3-2.2,7.2c-0.8,0.2-1.4,1.4-1.2,2.8c0.1,1.4,0.9,2.5,1.7,2.6c0.5,2.4,2.2,4.8,4.2,6.3
		c0,1.1-0.4,2.1-2,2.9c-2.4,1-4.2,1.6-6.3,2.8c-3.5,2-3.9,3.9-3.9,5.2v1.6c0,2.3,1.3,3.6,3.5,3.6h12.4h12.4c2.2,0,3.5-0.8,3.5-3.6
		v-1.6C-403.1,293.4-403.5,291.5-407,289.6z"/>
</g>
</svg>
