<?xml version="1.0" encoding="utf-8"?>
<!-- Generator: Adobe Illustrator 18.1.0, SVG Export Plug-In . SVG Version: 6.00 Build 0)  -->
<svg version="1.1" id="Layer_1" xmlns="http://www.w3.org/2000/svg" xmlns:xlink="http://www.w3.org/1999/xlink" x="0px" y="0px"
	 viewBox="-449 251 60 60" enable-background="new -449 251 60 60" xml:space="preserve">
<g>
	<g>
		<path fill="#FFFFFF" d="M-411.5,280.2h-7.2V270c0-0.6-0.5-1.1-1.1-1.1c-0.6,0-1.1,0.5-1.1,1.1v11.8c0,0.2,0.1,0.5,0.2,0.6
			c0.2,0.5,0.8,0.9,1.4,0.9h7.9c0.8,0,1.5-0.7,1.5-1.5C-410,280.9-410.7,280.2-411.5,280.2z M-419,262c-10.5,0-19,8.5-19,19
			s8.5,19,19,19c10.5,0,19-8.5,19-19S-408.5,262-419,262z M-419,296.3c-8.5,0-15.3-6.9-15.3-15.3s6.9-15.3,15.3-15.3
			s15.3,6.9,15.3,15.3S-410.5,296.3-419,296.3z"/>
	</g>
</g>
</svg>
