<?xml version="1.0" encoding="utf-8"?>
<!-- Generator: Adobe Illustrator 18.1.1, SVG Export Plug-In . SVG Version: 6.00 Build 0)  -->
<svg version="1.1" id="Laag_1" xmlns="http://www.w3.org/2000/svg" xmlns:xlink="http://www.w3.org/1999/xlink" x="0px" y="0px"
	 viewBox="0 0 52 52" enable-background="new 0 0 52 52" xml:space="preserve">
<g>
	<g>
		<defs>
			<rect id="SVGID_1_" x="-13.8" y="-13.2" width="80" height="80"/>
		</defs>
		<clipPath id="SVGID_2_">
			<use xlink:href="#SVGID_1_"  overflow="visible"/>
		</clipPath>
		<path clip-path="url(#SVGID_2_)" fill="#004BFF" d="M8.6,48.1L3.6,29.7L43.7,19l4.9,18.5L8.6,48.1z M18.6,10.5c0.2,0,0.3,0,0.5,0
			c0.3,0,0.6,0,1-0.1c0.5-0.1,0.9-0.3,1.3-0.6L34,19.5l-21.7,5.8L18.6,10.5z M17.5,6c0.2-0.4,0.6-0.7,1-0.8c0.1,0,0.3-0.1,0.4-0.1
			c0.8,0,1.4,0.5,1.6,1.3c0.1,0.4,0.1,0.9-0.2,1.3c-0.2,0.4-0.6,0.6-1,0.8l-0.1,0l0,0.1c-0.9,0.2-1.8-0.3-2-1.2
			C17.3,6.8,17.3,6.4,17.5,6 M50.8,37.9l-5.5-20.4c-0.1-0.3-0.2-0.5-0.5-0.6c-0.2-0.1-0.5-0.2-0.8-0.1l-7.7,2.1l-14-10.7
			c0.3-0.7,0.3-1.5,0.1-2.3c-0.4-1.6-1.9-2.7-3.6-2.7c-0.3,0-0.6,0-1,0.1c-1,0.3-1.8,0.9-2.2,1.7c-0.5,0.9-0.6,1.8-0.4,2.8
			c0.2,0.8,0.7,1.4,1.3,1.9L9.9,25.9L2.2,28c-0.5,0.1-0.9,0.7-0.7,1.2l5.5,20.4c0.1,0.4,0.5,0.7,1,0.7c0.1,0,0.2,0,0.3,0l42-11.2
			C50.7,39,51,38.4,50.8,37.9"/>
		<path clip-path="url(#SVGID_2_)" fill="#004BFF" d="M14.7,39.3c-0.2,0.1-0.4,0.1-0.6,0.1c-1.1,0-2.1-0.8-2.4-2
			c-0.4-1.4,0.3-2.7,1.7-3.1c0.2-0.1,0.4-0.1,0.6-0.1c1.1,0,2.1,0.8,2.4,2C16.7,37.7,16,39,14.7,39.3 M14,32.5
			c-0.4,0-0.8,0.1-1.2,0.2c-1.2,0.3-2.1,1-2.7,2.1c-0.5,1-0.7,2.1-0.4,3.2c0.5,1.9,2.2,3.2,4.1,3.2c0.4,0,0.8-0.1,1.2-0.2
			c1.2-0.3,2.1-1,2.7-2.1c0.5-1,0.7-2.1,0.4-3.3C17.6,33.8,16,32.5,14,32.5"/>
		<path clip-path="url(#SVGID_2_)" fill="#004BFF" d="M23.6,32.9c0.2,0.8-0.5,1.3-1.2,1.5l-1.3,0.3l-0.6-2.2l1.3-0.4
			C22.8,32,23.4,32.2,23.6,32.9 M21.4,30.5l-2.3,0.6c-0.2,0.1-0.4,0.2-0.5,0.4c-0.1,0.2-0.2,0.5-0.1,0.7l1.7,6.4
			c0.1,0.4,0.5,0.7,0.9,0.7c0.1,0,0.2,0,0.2,0c0.5-0.1,0.8-0.6,0.7-1.1l-0.5-1.7l1.3-0.3c2-0.5,3-2,2.5-3.7
			C24.9,30.8,23.3,30,21.4,30.5"/>
		<path clip-path="url(#SVGID_2_)" fill="#004BFF" d="M32.7,34.4l-3.6,1l-0.4-1.5l3.1-0.8c0.2-0.1,0.4-0.2,0.5-0.4
			c0.1-0.2,0.1-0.4,0.1-0.7c-0.1-0.4-0.5-0.7-0.9-0.7c0,0-0.2,0-0.2,0l-3.1,0.8l-0.4-1.5l3.6-0.9c0.5-0.1,0.8-0.6,0.6-1.1
			c-0.1-0.5-0.6-0.7-1.1-0.6l-4.5,1.2c-0.5,0.1-0.8,0.6-0.6,1.1l1.7,6.3c0.1,0.4,0.5,0.7,0.9,0.7c0.1,0,0.2,0,0.2,0l4.5-1.2
			c0.5-0.1,0.7-0.6,0.6-1.1C33.7,34.5,33.2,34.3,32.7,34.4"/>
		<path clip-path="url(#SVGID_2_)" fill="#004BFF" d="M40.2,26.4c-0.1-0.5-0.6-0.8-1.1-0.6c-0.2,0.1-0.4,0.2-0.6,0.4
			c-0.1,0.2-0.2,0.5-0.1,0.7l1.1,4l-4.7-3.5c-0.2-0.1-0.5-0.3-0.9-0.2l-0.1,0c-0.5,0.1-0.8,0.6-0.6,1.1l1.7,6.4
			c0.1,0.4,0.5,0.7,0.9,0.7c0.1,0,0.2,0,0.2,0c0.2-0.1,0.4-0.2,0.6-0.4c0.1-0.2,0.2-0.5,0.1-0.7l-1.1-4.1l4.8,3.6
			c0.2,0.1,0.4,0.2,0.7,0.2c0.1,0,0.2,0,0.3,0c0.5-0.1,0.8-0.6,0.6-1.1L40.2,26.4z"/>
	</g>
</g>
</svg>
