<?xml version="1.0" encoding="utf-8"?>
<!-- Generator: Adobe Illustrator 18.1.0, SVG Export Plug-In . SVG Version: 6.00 Build 0)  -->
<svg version="1.1" id="Layer_1" xmlns="http://www.w3.org/2000/svg" xmlns:xlink="http://www.w3.org/1999/xlink" x="0px" y="0px"
	 viewBox="-449 251 60 60" enable-background="new -449 251 60 60" xml:space="preserve">
<path fill="#FFFFFF" d="M-402.6,290.5l-1.8-16.6c-0.1-1.3-1.3-2.4-2.6-2.4h-5v-2.4h5V262h-14.3v7.1h5v2.4h-14.5
	c-1.3,0-2.5,1.1-2.6,2.4l-1.8,16.6h-2.6v9.5h38v-9.5H-402.6z M-411.9,276.2h2.4v2.4h-2.4V276.2z M-411.9,281h2.4v2.4h-2.4V281z
	 M-411.9,285.8h2.4v2.4h-2.4V285.8z M-419,266.8v-2.4h9.5v2.4H-419z M-416.6,276.2h2.4v2.4h-2.4V276.2z M-416.6,281h2.4v2.4h-2.4
	V281z M-416.6,285.8h2.4v2.4h-2.4V285.8z M-430.9,276.2h9.5v4.8h-9.5V276.2z M-402.4,295.2h-33.2v-2.4h33.2V295.2z"/>
</svg>
