<?xml version="1.0" encoding="utf-8"?>
<!-- Generator: Adobe Illustrator 18.1.0, SVG Export Plug-In . SVG Version: 6.00 Build 0)  -->
<svg version="1.1" id="Layer_1" xmlns="http://www.w3.org/2000/svg" xmlns:xlink="http://www.w3.org/1999/xlink" x="0px" y="0px"
	 viewBox="-449 251 60 60" enable-background="new -449 251 60 60" xml:space="preserve">
<g>
	<polygon fill="#FFFFFF" points="-404.1,270.4 -408.2,266.2 -411.4,269.4 -404.4,276.4 -392.8,264.8 -395.6,262 	"/>
</g>
<g>
	<path fill="#FFFFFF" d="M-415.4,283.3c-0.8,0-1.6,0.2-2.4,0.4l-1.4-2.6l3.4-7.3l0.3-0.7c0.2-0.4,0.1-0.8-0.1-1.1
		c-0.2-0.3-0.6-0.5-1-0.5h-0.8h-5.2c-0.7,0-1.2,0.5-1.2,1.2c0,0.7,0.5,1.2,1.2,1.2h4.1l-2.2,4.8h-12.6c-0.5,0-1,0.3-1.1,0.8
		l-1.3,4.1c-0.4,0-0.7-0.1-1.1-0.1c-4.6,0-8.3,3.7-8.3,8.3s3.7,8.3,8.3,8.3c4.6,0,8.3-3.7,8.3-8.3c0-3.4-2-6.3-4.9-7.6l0.5-1.6
		c0.3-0.9,1.2-1.6,2.2-1.6h8.7l0.2,0.3l1.4,2.6l0.5,0.9c-2.2,1.5-3.7,4-3.7,6.9c0,4.6,3.7,8.3,8.3,8.3c4.6,0,8.3-3.7,8.3-8.3
		C-407,287-410.8,283.3-415.4,283.3z M-430.9,291.7c0,3.3-2.7,6-6,6c-3.3,0-6-2.7-6-6c0-3.3,2.7-6,6-6c0.1,0,0.2,0,0.4,0l-1.2,3.6
		c-0.2,0.6,0.1,1.3,0.8,1.5c0.3,0.1,0.6,0.1,0.9-0.1c0.3-0.1,0.5-0.4,0.6-0.7l1.2-3.7C-432.2,287.3-430.9,289.3-430.9,291.7z
		 M-415.4,297.6c-3.3,0-6-2.7-6-6c0-2,1-3.7,2.5-4.8l3,5.5c0.3,0.6,1,0.8,1.6,0.5l0,0c0.3-0.1,0.5-0.4,0.6-0.7
		c0.1-0.3,0.1-0.6-0.1-0.9l-2.9-5.4c0.4-0.1,0.8-0.1,1.3-0.1c3.3,0,6,2.7,6,6C-409.4,294.9-412.1,297.6-415.4,297.6z"/>
	<path fill="#FFFFFF" d="M-436.8,276.2h3.6c1.8,0,2.9-0.6,3.9-1.5c0.1-0.1,0.2-0.3,0.1-0.5s-0.2-0.3-0.4-0.3h-7.2
		c-0.7,0-1.2,0.5-1.2,1.2C-438,275.6-437.5,276.2-436.8,276.2z"/>
</g>
</svg>
