<?xml version="1.0" encoding="utf-8"?>
<!-- Generator: Adobe Illustrator 18.1.1, SVG Export Plug-In . SVG Version: 6.00 Build 0)  -->
<svg version="1.1" id="Laag_1" xmlns="http://www.w3.org/2000/svg" xmlns:xlink="http://www.w3.org/1999/xlink" x="0px" y="0px"
	 viewBox="0 0 52 52" enable-background="new 0 0 52 52" xml:space="preserve">
<g>
	<defs>
		<rect id="SVGID_3_" x="-13.8" y="-13.2" width="80" height="80"/>
	</defs>
	<clipPath id="SVGID_2_">
		<use xlink:href="#SVGID_3_"  overflow="visible"/>
	</clipPath>
	<path clip-path="url(#SVGID_2_)" fill="#004BFF" d="M25.6,16.3c-0.5,0-1,0.4-1,1V29l-6,4.4c-0.4,0.3-0.5,0.9-0.2,1.4
		c0.2,0.3,0.5,0.4,0.8,0.4c0.2,0,0.4-0.1,0.6-0.2l6.4-4.7c0.3-0.2,0.4-0.5,0.4-0.8V17.3C26.5,16.8,26.1,16.3,25.6,16.3"/>
	<path clip-path="url(#SVGID_2_)" fill="#004BFF" d="M25.6,46.1C16.4,46.1,9,38.6,9,29.5s7.4-16.6,16.6-16.6
		c9.1,0,16.6,7.4,16.6,16.6S34.7,46.1,25.6,46.1 M44.1,29.5c0-10.2-8.3-18.5-18.5-18.5S7,19.3,7,29.5c0,5.9,2.7,11.1,7,14.5
		l-3.8,6.4c-0.3,0.5-0.1,1.1,0.4,1.3c0.2,0.1,0.3,0.1,0.5,0.1c0.3,0,0.7-0.2,0.8-0.5l3.7-6.3c2.9,1.8,6.3,2.9,9.9,2.9
		c3.7,0,7.1-1.1,9.9-2.9l3.7,6.3c0.2,0.3,0.5,0.5,0.9,0.5c0.2,0,0.3,0,0.5-0.1c0.5-0.3,0.6-0.9,0.4-1.3L37.1,44
		C41.3,40.6,44.1,35.4,44.1,29.5"/>
	<path clip-path="url(#SVGID_2_)" fill="#004BFF" d="M11.3,5.3c0.9-0.5,1.9-0.8,2.9-0.8c1.7,0,3.3,0.8,4.4,2.1l-9.8,5.7
		C7.8,9.7,8.8,6.8,11.3,5.3 M8.3,14.7c0.2,0,0.3,0,0.5-0.1l11.7-6.7c0.2-0.1,0.4-0.3,0.5-0.6C21,7,21,6.7,20.8,6.5
		c-1.4-2.4-3.9-3.9-6.7-3.9c-1.3,0-2.7,0.4-3.9,1c-3.7,2.1-5,6.9-2.8,10.5C7.6,14.5,8,14.7,8.3,14.7"/>
	<path clip-path="url(#SVGID_2_)" fill="#004BFF" d="M37,4.6c1,0,2,0.3,2.9,0.8c1.3,0.8,2.3,2,2.7,3.5c0.3,1.2,0.3,2.4-0.2,3.5
		l-9.8-5.7C33.7,5.3,35.3,4.6,37,4.6 M30.7,7.8l11.7,6.7c0.2,0.1,0.3,0.1,0.5,0.1c0.3,0,0.7-0.2,0.9-0.5c1-1.8,1.3-3.9,0.8-5.9
		c-0.5-2-1.8-3.7-3.6-4.7c-1.2-0.7-2.5-1-3.9-1c-2.8,0-5.3,1.5-6.7,3.9c-0.1,0.2-0.2,0.5-0.1,0.7C30.3,7.5,30.5,7.7,30.7,7.8"/>
</g>
</svg>
