<?xml version="1.0" encoding="utf-8"?>
<!-- Generator: Adobe Illustrator 18.1.1, SVG Export Plug-In . SVG Version: 6.00 Build 0)  -->
<svg version="1.1" id="Laag_1" xmlns="http://www.w3.org/2000/svg" xmlns:xlink="http://www.w3.org/1999/xlink" x="0px" y="0px"
	 viewBox="0 0 52 52" enable-background="new 0 0 52 52" xml:space="preserve">
<g>
	<defs>
		<rect id="SVGID_5_" x="-13.8" y="-13.2" width="80" height="80"/>
	</defs>
	<clipPath id="SVGID_2_">
		<use xlink:href="#SVGID_5_"  overflow="visible"/>
	</clipPath>
	<path clip-path="url(#SVGID_2_)" fill="#004BFF" d="M39.6,41.9c-0.2,0-26.3,0-26.3,0c-5.3,0-9.6-4.3-9.6-9.6c0-3.3,1.7-6.4,4.6-8.2
		c0.3-0.2,0.5-0.5,0.5-0.9l0-0.2c0-0.2,0-0.3,0-0.5c0-5.7,4.6-10.2,10.3-10.2c3.3,0,6.3,1.5,8.2,4.1c0.2,0.3,0.6,0.4,0.9,0.4
		c0.5-0.1,1.1-0.1,1.5-0.1c3.6,0,6.9,2.4,8,5.9c0.1,0.5,0.6,0.7,1.1,0.7c0.3,0,0.6,0,0.8-0.1c0.1,0,0.1,0,0.2,0c0.3,0,0.6,0,0.9,0
		c0,0,0.1,0,0.1,0c0.2,0,0.5,0.1,0.7,0.1c4.4,0.8,7.5,4.7,7.5,9.1C48.9,37.7,44.7,41.9,39.6,41.9 M41.7,21.5
		c-0.3-0.1-0.6-0.1-0.9-0.1c0,0-0.1,0-0.1,0c-0.4,0-0.7-0.1-1.1-0.1h0c-0.2,0-0.2,0-0.4,0c-1.5-4-5.3-6.6-9.7-6.6
		c-0.4,0-0.8,0-1.2,0.1c-2.3-2.9-5.8-4.5-9.5-4.5c-6.8,0-12.3,5.5-12.3,12.2c0,0.1,0,0.1,0,0.2c-3.2,2.2-5,5.7-5,9.5
		c0,6.4,5.2,11.6,11.6,11.6h26.3c6.2,0,11.3-5.1,11.3-11.3C50.9,27.2,47,22.5,41.7,21.5"/>
</g>
</svg>
