<svg xmlns="http://www.w3.org/2000/svg" xmlns:xlink="http://www.w3.org/1999/xlink" viewBox="0 0 52 52" enable-background="new 0 0 52 52"><defs><path id="a" d="M-13.8-13.2h80v80h-80z"/></defs><clipPath id="b"><use xlink:href="#a" overflow="visible"/></clipPath><path clip-path="url(#b)" fill="#004BFF" d="M42.9 40.1h-4.8c-.3 0-.6.1-.8.4-2.1 2.7-4.5 4.8-7.8 6.7h-1.8c-.4 0-.9 0-1.4-.1l2.3-1c.5-.2.8-.7 1-1.2.1-.5 0-1.1-.3-1.5-.1-.1-.2-.2-.2-.3L29 43l-.1-.1c-.5-.7-1-1.3-1.7-1.8l.6-.3c.5-.2.8-.6 1-1.1.1-.5 0-1-.3-1.5-.1-.1-.3-.4-.4-.5-.5-.6-1.1-1.1-1.7-1.5.4-.2.7-.6.8-1 .1-.5 0-1-.3-1.5-.8-1.1-1.7-1.9-2.8-2.4.3-.2.5-.5.6-.9.1-.5.1-1-.2-1.4-1.4-2.1-3.3-3.2-5.7-3.2-.6 0-1.3.1-2.3.4-.7.2-1.5.5-2.4.9l-1.2.1c-.6 0-1 .5-1 1 0 .6.5 1 1 1l1.4-.1c.1 0 .2 0 .3-.1 1-.4 1.8-.7 2.4-.9.7-.2 1.3-.3 1.7-.3 1.6 0 2.8.7 3.8 2l-1.5.7h-.1l-3.8 1.7c-.8.4-1.7.5-2.6.5h-1c-1.1 0-2.1-.3-3-.9-.2-.2-.5-.4-.7-.6-1-1-1.5-2.2-1.5-3.6 0-1.5 1-2.6 2.9-3.4 2-.8 5.1-1.2 9.1-1.2h.7c.3 0 .5-.1.7-.3.2-.2.3-.5.3-.7v-.3c0-3.1-1-6.4-3.1-9.7l-.5-.8c-.8-1.4-1.3-2.7-1.3-3.9 0-1.1.3-2.1.9-2.9.6-.7 1.4-1.3 2.5-1.7l.5 2.5c.6 2.9 2 5.5 4 7.7l4.7 5c1.4 1.8 2.3 3 3 3.8 1.7 2.4 3 3.8 3.8 4.2.9.4 2.8.6 6 .6.8 2.3 1.2 4.7 1.2 7.2.3 2-.1 4.1-.8 6.4m-20 6.3l-.8.3c-.4.2-.9.3-1.4.3h-.5c-1.2 0-2.1-.2-2.7-.6-.5-.4-.8-.9-.8-1.6v-.5h1.5c1.1 0 2.3-.2 3.3-.7L25 42l.2.2.1.1c.7.6 1.3 1.2 1.8 1.9l.1.2v.1l-4.3 1.9zM16 42.2s-.1 0 0 0c-1.1-.1-1.9-.2-2.5-.5-.6-.3-.9-.7-1-1.4l.2-.8c.4 0 .9.1 1.4.1H17c1.1 0 2.2-.2 3.3-.7l3.8-1.7.4.2c.8.4 1.5.9 2.1 1.6l.1.1-1.7.8-4.1 1.8c-.8.4-1.6.5-2.5.5h-1.5c-.4.1-.6 0-.9 0m-3.8-4.7c-.6-.1-1-.2-1.4-.4-.7-.4-1-.9-1-1.5 0-.3.2-.7.5-1.2l.2-.2c1 .5 2.1.7 3.2.7h.9c1.2 0 2.4-.2 3.4-.7l3.5-1.6.6.2c1.1.3 2 .9 2.9 1.9l-1.2.5-4.3 1.9c-.8.3-1.6.5-2.5.5h-2.8c-.7 0-1.3 0-2-.1.1 0 .1 0 0 0m32.4-11.9l-.2-.5c-.1-.4-.5-.7-.9-.7H43c-4.3 0-5.3-.4-5.4-.4-.1 0-.9-.5-3.1-3.5-.6-.9-1.6-2.1-3-3.9l-.1-.1-4.8-5.1c-1.8-1.9-3-4.2-3.5-6.7l-.8-3.6c-.1-.3-.2-.5-.5-.7-.2-.1-.5-.2-.8-.1l-.8.3c-1.6.6-2.9 1.4-3.7 2.5-.9 1.1-1.3 2.5-1.3 4.1 0 1.6.5 3.3 1.6 5l.5.9c1.7 2.8 2.6 5.5 2.7 8.1-4.1 0-7.3.5-9.5 1.3-3.5 1.4-4.2 3.6-4.2 5.3 0 2 .7 3.7 2.1 5l.2.2-.2.3c-.5.8-.8 1.5-.8 2.3 0 1.4.7 2.6 2.1 3.3.3.1.6.3.9.4l-.2.7v.4c0 1.4.7 2.6 2.1 3.2.6.3 1.3.5 2.2.6v.6c0 1.4.6 2.6 1.7 3.3.9.6 2.2.9 3.8.9h.5c.8 0 1.5-.2 2.2-.5l.4-.2 2.3.6c.8.2 1.5.2 2 .2l2-.1c.3 0 .5-.1.8-.2 3.4-1.9 6-4.1 8.1-6.8h5c.4 0 .8-.3.9-.7l.2-.5c.9-2.5 1.3-4.9 1.3-7.3.1-2.6-.4-5.3-1.3-7.9"/></svg>