<?xml version="1.0" encoding="UTF-8" standalone="no"?><!DOCTYPE svg PUBLIC "-//W3C//DTD SVG 1.1//EN" "http://www.w3.org/Graphics/SVG/1.1/DTD/svg11.dtd"><svg width="100%" height="100%" viewBox="0 0 57 57" version="1.1" xmlns="http://www.w3.org/2000/svg" xmlns:xlink="http://www.w3.org/1999/xlink" xml:space="preserve" xmlns:serif="http://www.serif.com/" style="fill-rule:evenodd;clip-rule:evenodd;stroke-linejoin:round;stroke-miterlimit:1.41421;"><g id="Layer-1" serif:id="Layer 1"><path d="M45.894,17.497c-0.634,-0.602 -1.603,-1.57 -2.203,-2.204l1.666,-1.666l2.204,2.203l-1.667,1.667Zm3.549,-2.614l-3.129,-3.126c-0.237,-0.244 -0.565,-0.38 -0.92,-0.38c-0.056,0 -0.176,0.011 -0.229,0.019c-0.319,0.053 -0.625,0.215 -0.854,0.45l-2.689,2.687c-0.286,0.286 -0.369,0.733 -0.213,1.106c0.017,0.042 3.539,4.219 4.534,4.219c0.265,0 0.523,-0.107 0.712,-0.294l2.685,-2.686c0.242,-0.24 0.403,-0.547 0.45,-0.85c0.075,-0.432 -0.052,-0.849 -0.347,-1.145" style="fill:#004bff;fill-rule:nonzero;"/><path d="M35.525,24.436l-9.449,9.45c-0.391,0.391 -0.391,1.023 0,1.413c0.195,0.196 0.451,0.293 0.707,0.293c0.256,0 0.512,-0.097 0.707,-0.293l9.449,-9.449c0.391,-0.392 0.391,-1.023 0,-1.414c-0.392,-0.392 -1.023,-0.392 -1.414,0" style="fill:#004bff;fill-rule:nonzero;"/><path d="M27.712,52.037c-10.079,0 -18.278,-8.2 -18.278,-18.279c0,-10.078 8.199,-18.279 18.278,-18.279c10.079,0 18.279,8.201 18.279,18.279c0,10.079 -8.199,18.279 -18.279,18.279m-2.817,-42.545l-1.087,0l0,-3.116l7.811,0l0,3.117l-1.087,0c-0.552,0 -1,0.448 -1,1l0,3.08c-0.599,-0.054 -1.205,-0.092 -1.819,-0.092c-0.613,0 -1.218,0.039 -1.817,0.092l0,-3.079c-0.001,-0.554 -0.449,-1.002 -1.001,-1.002m6.637,4.36l0,-2.36l0.609,0c0.342,0 0.671,-0.104 0.898,-0.273c0.362,-0.248 0.579,-0.647 0.579,-1.067l0,-4.437c0,-0.415 -0.204,-0.799 -0.55,-1.046c-0.257,-0.189 -0.587,-0.293 -0.928,-0.293l-8.857,0c-0.338,0 -0.666,0.103 -0.923,0.289c-0.352,0.254 -0.553,0.638 -0.553,1.05l0,4.437c0,0.416 0.203,0.8 0.566,1.06c0.258,0.181 0.581,0.28 0.909,0.28l0.611,0l0,2.36c-9.36,1.793 -16.459,10.031 -16.459,19.906c0,11.182 9.097,20.279 20.278,20.279c11.182,0 20.279,-9.097 20.279,-20.279c0.001,-9.875 -7.098,-18.113 -16.459,-19.906" style="fill:#004bff;fill-rule:nonzero;"/></g></svg>