<?xml version="1.0" encoding="utf-8"?>
<!-- Generator: Adobe Illustrator 18.1.0, SVG Export Plug-In . SVG Version: 6.00 Build 0)  -->
<svg version="1.1" id="Layer_1" xmlns="http://www.w3.org/2000/svg" xmlns:xlink="http://www.w3.org/1999/xlink" x="0px" y="0px"
	 viewBox="-449 251 60 60" enable-background="new -449 251 60 60" xml:space="preserve">
<g>
	<g>
		<path d="M-409.7,268.9c1.8,0.7,3.9-0.3,4.5-2.1c0.7-1.8-0.3-3.9-2.1-4.5c-1.8-0.7-3.9,0.3-4.5,2.1
			C-412.4,266.1-411.5,268.2-409.7,268.9z"/>
	</g>
	<g>
		<path d="M-402.4,298.2c-4.3,0-7.8-3.5-7.8-7.8c0-3.2,1.9-5.9,4.7-7.1l2.1,7.4c0.1,0.4,0.5,0.7,1,0.7
			c0.1,0,0.2,0,0.3,0c0.5-0.2,0.8-0.7,0.7-1.2l-2.1-7.4c0.4-0.1,0.7-0.1,1.1-0.1c4.3,0,7.8,3.5,7.8,7.8
			C-394.7,294.7-398.1,298.2-402.4,298.2z M-402.4,280.9c-0.6,0-1.1,0.1-1.6,0.1l-0.6-2.2c0.9-0.2,1.1-0.5,1.1-1.3
			c0-1.3-0.9-1.4-2.7-1.3l-2.9,0.1l-2.2-6c-0.1-0.2-0.2-0.4-0.3-0.5l-1-1.5c0-0.1-0.3-0.4-0.4-0.5c0,0-1.4-2.3-4.6,0l-7.6,5.5
			c-1.7,1.4-2.6,2.7-1.3,5c0,0,0.7,1.1,2.4,2.3c0.8,0.6,4.6,2.8,4.6,2.8l-4.5,6.6c-0.3,0.4-0.3,0.9-0.2,1.4c0.1,0.3,0.3,0.6,0.6,0.8
			c0.7,0.5,1.8,0.4,2.5-0.4c0,0,5.2-7.3,5.7-8c0.7-1,0.1-1.9-0.3-2.2c-0.4-0.3-5.3-3.5-5.3-3.5l6.8-4.7l1.8,4.7
			c0.2,0.6,0.8,1.2,1.4,1.3c0,0,0.9-0.1,1.9-0.1l-9.3,10.5c-0.4,0.4-0.3,1.1,0.1,1.4c0.4,0.4,1.1,0.3,1.4-0.1l10.2-11.6l0.6,2.1
			c-3.5,1.4-6,4.9-6,8.9c0,5.3,4.3,9.6,9.6,9.6c5.3,0,9.6-4.3,9.6-9.6C-392.9,285.1-397.1,280.9-402.4,280.9z"/>
	</g>
	<g>
		<path d="M-403.5,274.3c0-0.5-0.4-0.9-0.9-0.9h-2.3c-0.5,0-0.9,0.4-0.9,0.9v0.1c0,0.5,0.4,1,0.9,1h2.3
			C-403.9,275.3-403.5,274.9-403.5,274.3L-403.5,274.3z"/>
	</g>
	<g>
		<path d="M-433.4,289.5l3.6-4.3c1.1,1.2,1.8,2.7,1.9,4.3H-433.4z M-435.6,298.2c-4.3,0-7.8-3.5-7.8-7.8
			c0-4.3,3.5-7.8,7.8-7.8c1.6,0,3,0.5,4.2,1.3l-5,6c-0.3,0.3-0.3,0.7-0.1,1.1c0.2,0.4,0.5,0.6,0.9,0.6h7.7
			C-428.4,295.3-431.7,298.2-435.6,298.2z M-428.7,283.8l2.7-3.2c-0.6-0.5-1-0.9-1.2-1.3c-0.3-0.3-0.4-0.6-0.4-0.6
			c-0.4-0.7-0.6-1.4-0.7-2h-0.8c-0.7,0-1.3,0.6-1.3,1.3c0,0.7,0.6,1.3,1.3,1.3h1.6l-2.7,3.2c-1.5-1.1-3.4-1.7-5.4-1.7
			c-5.3,0-9.6,4.3-9.6,9.6c0,5.3,4.3,9.6,9.6,9.6c4.9,0,9-3.8,9.5-8.5h0.5l1.1-2.1h-1.5C-426.3,287.3-427.2,285.3-428.7,283.8z"/>
	</g>
</g>
</svg>
