<?xml version="1.0" encoding="utf-8"?>
<!-- Generator: Adobe Illustrator 18.1.0, SVG Export Plug-In . SVG Version: 6.00 Build 0)  -->
<svg version="1.1" id="Laag_1" xmlns="http://www.w3.org/2000/svg" xmlns:xlink="http://www.w3.org/1999/xlink" x="0px" y="0px"
	 viewBox="0 0 932 800" enable-background="new 0 0 932 800" xml:space="preserve">
<path fill="#004BFF" d="M923.1,669.1c-11.4,26.3-29.1,46.7-54.6,57c-28.7,11.6-66.2,10.8-98.1-3c-33.7-14.5-46.3-43.1-58.9-63.5
	c-55,65.9-132.1,114-218.6,134.2c150.2-53.3,260-206.2,260-386.4c0-224.2-167.9-406-375.2-406.6c8-0.5,16-0.7,24.1-0.7
	c222.5,0,402.9,180.1,402.9,402.2c0,41.5-6.3,81.5-18,119.1c19.3-4.7,41.4-8,66.4,1.9c32.2,12.7,59.4,38.6,71.5,67
	C935.6,615.5,933.7,642.5,923.1,669.1z M266.8,445c-1.1,0-2.3,0.1-3.4,0.4c-0.8,0.2-1.6,0.4-2.3,0.6c0,0,0,0-0.1,0
	c-2.2,0.7-4.2,1.7-6,3c-6.5,4.9-8.3,12.8-8.3,12.8c0.2-11.6-11.4-10.5-12.9-10.3c-0.1,0-0.1,0-0.2,0h0c-8.4,1.7-14.9,8.7-14.9,16
	v79.1c0,3.7,1.4,7.1,3.8,9.6c2.5,2.4,5.8,3.8,9.5,3.8c1,0,2.1-0.1,3.1-0.3c7.9-1.6,14.4-9.5,14.4-17.7l0.2-42.7c0-0.7,0.1-1.3,0.1-2
	c0.5-6.3,2-10.2,4.8-14c3.9-5.1,10-8,16.6-10.4v0c5.7-3.4,9-8.6,9-14.4C280.2,450.7,274.6,445,266.8,445z M301.9,437.8
	c-1,0-1.9,0.1-2.9,0.3c-8.4,1.7-14.9,9.5-14.9,17.8v77.5c0,7.6,5.7,13.4,13.3,13.4c1,0,2.1-0.1,3.1-0.3c8-1.6,14.6-8.2,14.6-17.9
	v-77.1C315.1,443.7,309.4,437.8,301.9,437.8z M302.1,401.8c-1,0-2.1,0.1-3.1,0.3c-8.9,1.8-15.9,10.1-15.9,18.8
	c0,8.2,5.8,14.1,13.9,14.1c1.1,0,2.3-0.1,3.4-0.4c8.6-1.7,15.4-10,15.4-18.7C315.8,407.9,309.9,401.8,302.1,401.8z M387.6,420.9
	c-2.9,0-5.9,0.3-9,0.9c-1.1,0.2-2.3,0.5-3.4,0.8c-0.2,0-0.3,0.1-0.5,0.1c-0.1,0-0.2,0.1-0.3,0.1c-0.5,0.2-1.1,0.3-1.6,0.5
	c-11.8,4.1-16.4,11.4-18.5,15.3c0,0,0-0.1,0-0.1c-0.1-3.9-4.2-9.2-11.9-9.1c0,0,0,0-0.1,0c0,0-0.1,0-0.1,0
	c-8.5,0-15.4,6.9-15.4,15.4c0,0.2,0,0.4,0,0.6c0,0.1,0,0.2,0,0.2v79.1c0,3.8,1.4,7.2,3.8,9.6c2.4,2.4,5.8,3.7,9.4,3.7
	c1,0,2.1-0.1,3.1-0.3c8.2-1.6,14.6-9.4,14.6-17.7v-24.6v-26.1c0-12.2,6.8-18.1,16-19.1c0.9-0.1,1.8-0.3,2.7-0.3
	c6.6,0,11.3,5,11.3,11.9v50.6c0,3.8,1.4,7.2,3.8,9.6c3.1,3.1,7.8,4.4,12.5,3.4c8.2-1.6,14.6-9.4,14.6-17.7v-53.7
	C418.7,433.7,406.8,420.9,387.6,420.9z M496.9,409.5c-0.1,0.1-0.5-12.2,12.5-13.5c0.2,0,0.4,0,0.6,0c0,0,0,0,0,0c0.1,0,0.3,0,0.4,0
	c0,0,0.1,0,0.1,0c6-0.1,13.7,3.8,13.7,18.2c0,0.3,0,0.5,0,0.8v72.6c0,31.4-16.5,53.6-45.6,61.7l0,0c-27.6,7.2-60.6-7.2-45.2-26
	c2.2-2,4.9-3.5,7.7-4.1c2.2-0.4,4.9-0.3,7.3,0.4l0.2,0.1l1.6,0.6v0c5.3,2,10.4,4.6,17.7,4.1c14.4-0.9,21.2-6.6,24.4-13.1
	c2-3.6,2.5-7.3,2.7-10c0-0.1,0-0.1,0-0.2c0,0,0,0,0,0c0-0.5,0-1,0-1.4c0,0,0-0.1,0-0.1c0-0.1,0-0.2,0-0.3c0-0.5,0-0.9,0-1.2
	c-2.5,4.1-6.6,8.9-14.4,12c-6.2,2.1-13.6,3.2-17.2,3.1c-11.2-0.5-20.4-4.8-27.3-13.1c-6.9-8.3-10.5-19.5-10.5-32.9
	c0-28.6,16.2-54.1,39.5-62.2c9.4-3.1,18.6-2.9,25.8,1C493.9,407.4,496.9,409.5,496.9,409.5z M495.3,453.3c0-10.1-2.5-22.1-14.2-22.1
	c-0.1,0-0.2,0-0.3,0c-0.2,0-0.4,0-0.6,0c-1.3,0-2.7,0.1-4.1,0.4c-11.7,2.4-19.6,14.4-19.6,29.9c0,0,0,0,0,0.1v0c0,0,0,0,0,0
	c0,13.3,5.6,21.5,14.7,21.5h0c0.2,0,0.4,0,0.6,0c0,0,0,0,0,0h0c1.2,0,2.4-0.1,3.7-0.4C487.7,480.4,495.3,469.1,495.3,453.3z
	 M203.8,459.1c-0.9,0-1.9,0.1-2.9,0.3l-3.8,0.8l0.3-13.7c0.1-3.7-1.2-7.2-3.7-9.7c-2.5-2.6-5.9-4-9.7-4c-1,0-2,0.1-3,0.3
	c-8.3,1.7-14.8,9.6-14.8,17.9v15.3l-2.5,0.5c-7.9,1.6-14,8.7-14,16.2c0,7,5.4,12.3,12.6,12.3c1,0,2-0.1,3-0.3l1.2-0.2V557
	c0,3.7,1.3,7,3.7,9.5c2.4,2.5,5.8,3.9,9.4,3.9c1,0,2-0.1,2.9-0.3c8.1-1.6,14.8-9.7,14.8-18l-0.3-63.5l5.2-1.1
	c7.6-1.5,13.9-8.8,13.9-16.1C216.2,464.4,210.9,459.1,203.8,459.1z M180,405c1,0,2.1-0.1,3.1-0.3c7.9-1.6,14.4-9.5,14.4-17.7
	l0.2-42.7c0-0.7,0.1-1.3,0.1-2c0.5-6.3,2-10.2,4.8-14c3.9-5.1,10-8,16.6-10.4h0c5.7-3.4,9-8.6,9-14.4c0-7.8-5.6-13.5-13.4-13.5
	c-1.1,0-2.3,0.1-3.4,0.4c-0.8,0.2-1.6,0.4-2.3,0.6c0,0,0,0-0.1,0c-2.2,0.7-4.2,1.7-6,3c-6.5,4.9-8.3,12.8-8.3,12.8
	c0.2-11.6-11.4-10.5-12.9-10.3c-0.1,0-0.1,0-0.2,0l0,0c-8.4,1.7-14.9,8.7-14.9,16v79.1c0,3.7,1.4,7.1,3.8,9.6
	C173,403.6,176.4,405,180,405z M247,283.1c-8.4,1.7-14.9,9.5-14.9,17.8v77.5c0,7.6,5.7,13.4,13.3,13.4c1,0,2.1-0.1,3.1-0.3
	c8-1.6,14.6-8.2,14.6-17.9v-77.1c0-7.8-5.7-13.6-13.2-13.6C248.9,282.8,248,282.9,247,283.1z M245,280c1.1,0,2.3-0.1,3.4-0.4
	c8.6-1.7,15.4-10,15.4-18.7c0-8.1-5.9-14.2-13.7-14.2c-1,0-2.1,0.1-3.1,0.3c-8.9,1.8-15.9,10.1-15.9,18.8
	C231.1,274.1,237,280,245,280z M335.9,307.1v50.6c0,3.8,1.4,7.2,3.8,9.6c3.1,3.1,7.8,4.4,12.5,3.4c8.2-1.6,14.6-9.4,14.6-17.7v-53.7
	c0-20.7-11.9-33.5-31.1-33.5c-2.9,0-5.9,0.3-9,0.9c-1.1,0.2-2.3,0.5-3.4,0.8c-0.2,0-0.3,0.1-0.5,0.1c-0.1,0-0.2,0.1-0.3,0.1
	c-0.5,0.2-1.1,0.3-1.6,0.5c-11.8,4.1-16.4,11.4-18.5,15.3c0,0,0-0.1,0-0.1c-0.1-3.9-4.2-9.2-11.9-9.1c0,0,0,0-0.1,0c0,0-0.1,0-0.1,0
	c-8.5,0-15.4,6.9-15.4,15.4c0,0.2,0,0.4,0,0.6c0,0.1,0,0.2,0,0.2v79.1c0,3.8,1.4,7.2,3.8,9.6c2.4,2.4,5.8,3.7,9.4,3.7
	c1,0,2.1-0.1,3.1-0.3c8.2-1.6,14.6-9.4,14.6-17.7v-24.6v-26.1c0-12.2,6.8-18.2,16-19.1c0.9-0.1,1.8-0.3,2.7-0.3
	C331.1,295.1,335.9,300.1,335.9,307.1z M384.5,345c-6.9-8.3-10.5-19.5-10.5-32.9c0-28.6,16.2-54.1,39.5-62.2
	c9.4-3.1,18.6-2.9,25.8,1c2.6,1.4,5.6,3.6,5.6,3.6c-0.1,0.1-0.5-12.2,12.5-13.5c0.2,0,0.4,0,0.6,0c0,0,0,0,0,0c0.1,0,0.3,0,0.4,0
	c0,0,0.1,0,0.1,0c6-0.1,13.7,3.8,13.7,18.2c0,0.3,0,0.5,0,0.8v72.6c0,31.4-16.5,53.6-45.6,61.7l0,0c-27.6,7.2-60.6-7.2-45.2-26
	c2.2-2,4.9-3.5,7.7-4.1c2.2-0.4,4.9-0.3,7.3,0.4l0.2,0.1l1.6,0.6h0c5.3,2,10.4,4.6,17.7,4.1c14.4-0.9,21.2-6.6,24.4-13.1
	c2-3.6,2.5-7.3,2.7-10c0-0.1,0-0.1,0-0.2c0,0,0,0,0,0c0-0.5,0-1,0-1.4c0,0,0-0.1,0-0.1c0-0.1,0-0.2,0-0.3c0-0.5,0-0.9,0-1.2
	c-2.5,4.1-6.6,8.9-14.4,12c-6.2,2.1-13.6,3.2-17.2,3.1C400.6,357.6,391.4,353.3,384.5,345z M404.6,306.6c0,13.3,5.6,21.5,14.7,21.5
	h0c0.2,0,0.4,0,0.6,0c0,0,0,0,0,0h0c1.2,0,2.4-0.1,3.7-0.4c12.2-2.4,19.8-13.7,19.8-29.5c0-10.1-2.5-22.1-14.2-22.1
	c-0.1,0-0.2,0-0.3,0c-0.2,0-0.4,0-0.6,0c-1.3,0-2.7,0.1-4.1,0.4C412.5,279,404.6,291,404.6,306.6
	C404.6,306.6,404.6,306.6,404.6,306.6C404.6,306.6,404.6,306.6,404.6,306.6C404.6,306.6,404.6,306.6,404.6,306.6z M164.2,316.4
	c0-7-5.3-12.3-12.3-12.3c-0.9,0-1.9,0.1-2.9,0.3l-3.8,0.8l0.3-13.7c0.1-3.7-1.2-7.2-3.7-9.7c-2.5-2.6-5.9-4-9.7-4c-1,0-2,0.1-3,0.3
	c-8.3,1.7-14.8,9.6-14.8,17.9v15.3l-2.5,0.5c-7.9,1.6-14,8.7-14,16.2c0,7,5.4,12.3,12.6,12.3c1,0,2-0.1,3-0.3l1.2-0.2v62.2
	c0,3.7,1.3,7,3.7,9.5c2.4,2.5,5.8,3.9,9.4,3.9c1,0,2-0.1,2.9-0.3c8.1-1.6,14.8-9.7,14.8-18l-0.3-63.5l5.2-1.1
	C158,331,164.2,323.7,164.2,316.4z M575.5,405C575.5,252,460.4,128,318.4,128S61.3,241.7,61.3,405s115.1,276.9,257.1,276.9
	S575.5,557.9,575.5,405z M352,4.4c190.7,0,351.5,164.3,351.5,397.8C703.5,625.4,553,800,352,800C174.9,800,0,621.9,0,402.2
	S168,4.4,352,4.4z"/>
<g>
</g>
<g>
</g>
<g>
</g>
<g>
</g>
<g>
</g>
<g>
</g>
<g>
</g>
<g>
</g>
<g>
</g>
<g>
</g>
<g>
</g>
<g>
</g>
<g>
</g>
<g>
</g>
<g>
</g>
</svg>
